<?xml version="1.0" encoding="UTF-8"?>
<svg id="Layer_1" data-name="Layer 1" xmlns="http://www.w3.org/2000/svg" viewBox="0 0 463.99 258.16">
  <defs>
    <style>
      .cls-1 {
        fill: #49bea1;
      }
    </style>
  </defs>
  <path class="cls-1" d="M100.6,191.49c23.69-14.64,70.42-38.62,132.09-38.53,60.86.09,107.04,23.57,130.7,38.09v-87.57c-25.48-14.61-74.26-37.44-137.64-35.47-56.81,1.77-100.54,22.69-125.16,37.22v86.25Z"/>
  <path class="cls-1" d="M92.9,141.94L2.97,102.38c-3.99-1.76-3.95-7.44.07-9.13L220.91,1.65c5.17-2.17,10.99-2.21,16.19-.09l223.79,91.13c4.04,1.64,4.15,7.32.18,9.12l-89.21,40.59.46-20.49c-22.05-12.45-72.24-36.91-140.46-36.61-67.6.3-117.21,24.74-139.19,37.3.08,6.45.15,12.89.23,19.34Z"/>
  <polygon class="cls-1" points="419.6 98.26 420.8 165.99 435.34 251.5 415.31 258.16 406.73 253.16 398.15 252.05 409.59 165.44 410.58 100.36 419.6 98.26"/>
</svg>