<svg width="79" height="79" viewBox="0 0 79 79" fill="none" xmlns="http://www.w3.org/2000/svg">
<path d="M69.1266 52.6678V33.2469L42.6287 47.648C41.6412 48.1966 40.5988 48.4709 39.5016 48.4709C38.4044 48.4709 37.362 48.1966 36.3745 47.648L8.55992 32.5063C7.95645 32.1771 7.53073 31.7657 7.28276 31.2719C7.03479 30.7782 6.9119 30.2296 6.91409 29.6261C6.91629 29.0226 7.04027 28.474 7.28605 27.9803C7.53183 27.4865 7.95645 27.0751 8.55992 26.7459L36.3745 11.6042C36.8683 11.3299 37.3763 11.1236 37.8986 10.9854C38.4208 10.8471 38.9552 10.7791 39.5016 10.7813C40.048 10.7835 40.5835 10.8526 41.1079 10.9887C41.6324 11.1247 42.1393 11.3299 42.6287 11.6042L73.9818 28.7209C74.5304 28.9952 74.9561 29.3935 75.259 29.9158C75.5618 30.438 75.7121 30.9998 75.7099 31.6011V52.6678C75.7099 53.6004 75.3939 54.3827 74.7619 55.0147C74.1299 55.6467 73.3487 55.9616 72.4183 55.9594C71.4878 55.9572 70.7066 55.6412 70.0746 55.0114C69.4426 54.3816 69.1266 53.6004 69.1266 52.6678ZM36.3745 67.398L19.9162 58.5105C18.819 57.907 17.9686 57.0841 17.3651 56.0417C16.7617 54.9994 16.4599 53.8747 16.4599 52.6678V40.1594L36.3745 50.9396C37.362 51.4882 38.4044 51.7626 39.5016 51.7626C40.5988 51.7626 41.6412 51.4882 42.6287 50.9396L62.5433 40.1594V52.6678C62.5433 53.8747 62.2415 54.9994 61.6381 56.0417C61.0346 57.0841 60.1842 57.907 59.087 58.5105L42.6287 67.398C42.1349 67.6723 41.628 67.8786 41.1079 68.0168C40.5878 68.1551 40.0524 68.2231 39.5016 68.2209C38.9508 68.2187 38.4153 68.1507 37.8953 68.0168C37.3752 67.8829 36.8683 67.6767 36.3745 67.398Z" fill="black"/>
</svg>
