<svg width="74" height="74" viewBox="0 0 74 74" fill="none" xmlns="http://www.w3.org/2000/svg">
<path d="M37 40.4688C38.9157 40.4688 40.4688 38.9157 40.4688 37C40.4688 35.0843 38.9157 33.5312 37 33.5312C35.0843 33.5312 33.5312 35.0843 33.5312 37C33.5312 38.9157 35.0843 40.4688 37 40.4688Z" fill="black"/>
<path d="M37 6.9375C20.4237 6.9375 6.9375 20.4237 6.9375 37C6.9375 53.5763 20.4237 67.0625 37 67.0625C53.5763 67.0625 67.0625 53.5763 67.0625 37C67.0625 20.4237 53.5763 6.9375 37 6.9375ZM52.1859 23.3172L45.4103 40.2563C44.945 41.4197 44.2483 42.4764 43.3623 43.3623C42.4764 44.2483 41.4197 44.945 40.2563 45.4103L23.3172 52.1859C23.1071 52.27 22.8769 52.2906 22.6552 52.2451C22.4335 52.1996 22.23 52.0901 22.07 51.93C21.9099 51.77 21.8004 51.5665 21.7549 51.3448C21.7094 51.1231 21.73 50.8929 21.8141 50.6828L28.5897 33.7437C29.055 32.5803 29.7517 31.5236 30.6377 30.6377C31.5236 29.7517 32.5803 29.055 33.7437 28.5897L50.6828 21.8141C50.8929 21.73 51.1231 21.7094 51.3448 21.7549C51.5665 21.8004 51.77 21.9099 51.93 22.07C52.0901 22.23 52.1996 22.4335 52.2451 22.6552C52.2906 22.8769 52.27 23.1071 52.1859 23.3172Z" fill="black"/>
</svg>
