<svg width="61" height="61" viewBox="0 0 61 61" fill="none" xmlns="http://www.w3.org/2000/svg">
<path d="M27.959 17.7913H33.0423V22.8747H27.959V17.7913ZM27.959 27.958H33.0423V43.208H27.959V27.958ZM30.5006 5.08301C16.4707 5.08301 5.08398 16.4697 5.08398 30.4997C5.08398 44.5297 16.4707 55.9163 30.5006 55.9163C44.5306 55.9163 55.9173 44.5297 55.9173 30.4997C55.9173 16.4697 44.5306 5.08301 30.5006 5.08301ZM30.5006 50.833C19.2919 50.833 10.1673 41.7084 10.1673 30.4997C10.1673 19.2909 19.2919 10.1663 30.5006 10.1663C41.7094 10.1663 50.834 19.2909 50.834 30.4997C50.834 41.7084 41.7094 50.833 30.5006 50.833Z" fill="white"/>
</svg>
