<?xml version="1.0" encoding="UTF-8"?>
<svg id="Layer_1" data-name="Layer 1" xmlns="http://www.w3.org/2000/svg" viewBox="0 0 500 500">
  <defs>
    <style>
      .cls-1 {
        fill: #fff;
      }

      .cls-2 {
        fill: #48bda0;
      }
    </style>
  </defs>
  <rect class="cls-2" x="13.62" y="138.12" width="418.94" height="134.85" transform="translate(-17.01 20.15) rotate(-4.98)"/>
  <rect class="cls-2" x="87.25" y="241.09" width="403.39" height="136.3" transform="translate(-3.72 3.51) rotate(-.69)"/>
  <path class="cls-1" d="M95.62,230.59c0,5.32-.92,9.97-2.77,13.96-1.84,3.98-4.37,7.29-7.57,9.93-3.2,2.64-6.95,4.62-11.25,5.94-4.29,1.32-8.91,1.98-13.84,1.98-1.9,0-3.99-.25-6.26-.76s-4.57-1.14-6.9-1.89c-2.33-.76-4.57-1.57-6.73-2.45-2.16-.87-4.07-1.7-5.74-2.48l2.56-24.01c3.3,1.98,6.96,3.49,10.98,4.52,4.02,1.03,7.97,1.54,11.86,1.54.74,0,1.63-.03,2.68-.09s2.05-.23,3-.52,1.76-.73,2.42-1.31c.66-.58.99-1.42.99-2.51,0-.74-.23-1.37-.7-1.89s-1.07-.95-1.81-1.28c-.74-.33-1.57-.58-2.51-.76s-1.85-.3-2.74-.38c-.89-.08-1.73-.12-2.51-.12h-1.86c-3.34,0-6.38-.58-9.12-1.75s-5.09-2.79-7.05-4.87c-1.96-2.08-3.49-4.54-4.57-7.4-1.09-2.86-1.63-5.95-1.63-9.29,0-4.58.92-8.69,2.77-12.32,1.84-3.63,4.31-6.72,7.4-9.26,3.09-2.54,6.63-4.5,10.63-5.86,4-1.36,8.14-2.04,12.41-2.04,1.9,0,3.86.07,5.89.2,2.02.14,4.03.38,6.03.73s3.95.8,5.86,1.34c1.9.54,3.71,1.22,5.42,2.04l-2.21,23.66c-2.64-.89-5.41-1.64-8.3-2.24-2.89-.6-5.72-.9-8.48-.9-.51,0-1.16,0-1.95.03-.8.02-1.63.08-2.51.17-.87.1-1.76.24-2.65.44-.89.19-1.69.46-2.39.79-.7.33-1.26.77-1.69,1.31-.43.54-.62,1.19-.58,1.92.04.85.36,1.54.96,2.07s1.38.93,2.33,1.22,2,.5,3.15.61,2.28.18,3.41.2c1.13.02,2.17.02,3.15,0,.97-.02,1.77,0,2.39.09,3.11.19,5.9.85,8.39,1.98,2.49,1.13,4.59,2.62,6.32,4.49s3.05,4.09,3.96,6.67c.91,2.58,1.37,5.43,1.37,8.54Z"/>
  <path class="cls-1" d="M159.59,179.43l-.58,24.71-17.36.7-2.1,54.07-24.59,1.28-2.21-54.07-17.36.93.7-27.5,63.51-.12Z"/>
  <path class="cls-1" d="M232.37,179.55c-1.75,13.67-3.24,27.28-4.49,40.82-1.24,13.54-2.43,27.16-3.55,40.88l-23.89,1.75,1.05-8.97c-.78.89-1.68,1.67-2.71,2.33-1.03.66-2.13,1.19-3.29,1.6s-2.37.7-3.61.87c-1.24.17-2.43.24-3.55.2-2.64-.04-5.13-.55-7.46-1.54-2.33-.99-4.47-2.31-6.41-3.96-1.94-1.65-3.69-3.57-5.24-5.77-1.55-2.19-2.86-4.51-3.93-6.93-1.07-2.43-1.88-4.9-2.45-7.43-.56-2.52-.84-4.97-.84-7.34,0-3.5.07-7.12.2-10.87.14-3.75.38-7.51.73-11.27.35-3.77.81-7.5,1.37-11.19.56-3.69,1.27-7.23,2.13-10.6,4.74.23,9.5.45,14.28.64,4.78.19,9.54.25,14.28.17-.89,3.38-1.78,6.77-2.65,10.17-.87,3.4-1.66,6.82-2.36,10.26s-1.26,6.89-1.69,10.34c-.43,3.46-.64,6.95-.64,10.49,0,.82.04,1.98.12,3.5.08,1.51.28,3.01.61,4.49.33,1.48.84,2.77,1.51,3.87s1.64,1.66,2.88,1.66c1.48,0,2.8-.63,3.96-1.89,1.17-1.26,2.19-2.96,3.09-5.1.89-2.14,1.66-4.6,2.3-7.4s1.19-5.72,1.63-8.77c.45-3.05.81-6.13,1.08-9.24.27-3.11.48-6.03.61-8.77s.23-5.2.29-7.37c.06-2.18.09-3.86.09-5.07,0-.78-.02-1.53-.06-2.27-.04-.74-.1-1.5-.17-2.27,2.52.08,5.03.14,7.52.17,2.49.04,4.99.06,7.52.06,1.94,0,3.89,0,5.86-.03,1.96-.02,3.93-.09,5.91-.2Z"/>
  <path class="cls-1" d="M301.88,215.33c0,5.44-.7,10.31-2.1,14.63-1.4,4.31-3.35,8.13-5.86,11.45s-5.49,6.15-8.94,8.48c-3.46,2.33-7.24,4.24-11.36,5.74-4.12,1.5-8.5,2.59-13.14,3.29-4.64.7-9.41,1.05-14.3,1.05-1.83,0-3.61-.05-5.36-.15s-3.54-.24-5.36-.44l1.63-75.86c4.27-1.36,8.67-2.32,13.2-2.88,4.53-.56,9.02-.84,13.49-.84,5.55,0,10.66.78,15.32,2.33,4.66,1.55,8.68,3.84,12.06,6.85,3.38,3.01,6.01,6.72,7.9,11.13,1.88,4.41,2.83,9.49,2.83,15.24ZM262.26,237.7c2.33-.35,4.46-1.06,6.38-2.13,1.92-1.07,3.58-2.39,4.98-3.96s2.48-3.36,3.23-5.36c.76-2,1.14-4.13,1.14-6.38s-.23-4.28-.7-6.21-1.22-3.59-2.27-5.01c-1.05-1.42-2.43-2.54-4.14-3.38-1.71-.83-3.81-1.29-6.29-1.37l-2.33,33.8Z"/>
  <path class="cls-1" d="M335.91,206.72l-4.08,52.63-24.59.85-2.33-52.4,31-1.08Z"/>
  <path class="cls-1" d="M405.66,214.51c0,3.38-.23,6.76-.7,10.14-6.64.43-13.25,1.12-19.81,2.07-6.57.95-13.13,1.89-19.69,2.83,1.01,2.8,2.59,5.03,4.75,6.7,2.16,1.67,4.73,2.51,7.72,2.51,1.55,0,3.25-.29,5.1-.87,1.84-.58,3.68-1.31,5.51-2.19,1.82-.87,3.57-1.82,5.24-2.83,1.67-1.01,3.11-1.92,4.31-2.74l-2.8,26.45c-1.51,1.17-3.16,2.16-4.92,2.97-1.77.82-3.6,1.48-5.51,1.98-1.9.5-3.83.87-5.77,1.11-1.94.23-3.85.35-5.71.35-3.85,0-7.36-.52-10.55-1.57-3.19-1.05-6.07-2.52-8.65-4.4-2.58-1.88-4.85-4.11-6.79-6.67-1.94-2.56-3.55-5.36-4.84-8.39-1.28-3.03-2.25-6.23-2.91-9.61-.66-3.38-.99-6.8-.99-10.26s.33-7.23.99-10.84c.66-3.61,1.66-7.09,3-10.43,1.34-3.34,3.03-6.44,5.07-9.29s4.42-5.35,7.14-7.49c2.72-2.14,5.8-3.81,9.24-5.01,3.44-1.2,7.23-1.81,11.39-1.81,3.46,0,6.61.48,9.47,1.43,2.86.95,5.4,2.27,7.63,3.96,2.23,1.69,4.18,3.7,5.83,6.03,1.65,2.33,3.01,4.89,4.08,7.66,1.07,2.78,1.86,5.71,2.39,8.8s.79,6.23.79,9.41ZM382.35,211.48c0-1.09-.12-2.2-.35-3.35-.23-1.15-.61-2.19-1.14-3.12s-1.21-1.7-2.07-2.3c-.86-.6-1.92-.9-3.2-.9-1.55,0-2.92.42-4.11,1.25-1.19.84-2.2,1.88-3.06,3.15-.86,1.26-1.55,2.63-2.1,4.11-.54,1.48-.95,2.84-1.22,4.08l17.25-1.63v-1.28Z"/>
  <path class="cls-1" d="M203.08,272.1l-5.36,85.54-26.57,1.17.23-45.1-12,36.36h-10.26l-9.21-32.51-.12,37.76-26.92.82,1.17-80.53,29.95-1.17,11.89,38.57,15.85-40.9h31.35Z"/>
  <path class="cls-1" d="M279.82,352.05l-28.9,3.73-3.5-13.17h-13.28l-2.91,13.17-29.72-2.91,23.19-77.61,32.4-1.63,22.72,78.43ZM245.32,324.78l-4.43-20.28-4.31,20.28h8.74Z"/>
  <path class="cls-1" d="M335.58,274.9l-.58,24.71-17.36.7-2.1,54.07-24.59,1.28-2.21-54.07-17.36.93.7-27.5,63.51-.12Z"/>
  <path class="cls-1" d="M392.92,277.46l-2.1,24.59c-1.13-.31-2.23-.52-3.32-.64-1.09-.12-2.2-.17-3.32-.17-2.76,0-5.39.35-7.9,1.05s-4.72,1.77-6.64,3.2c-1.92,1.44-3.46,3.25-4.6,5.45-1.15,2.2-1.72,4.79-1.72,7.78,0,2.18.32,4.07.96,5.68.64,1.61,1.55,2.95,2.74,4.02,1.18,1.07,2.62,1.88,4.31,2.42,1.69.54,3.56.82,5.62.82,1.44,0,2.91-.15,4.43-.44s3.03-.69,4.54-1.19c1.51-.5,2.97-1.09,4.37-1.75,1.4-.66,2.7-1.36,3.9-2.1l-.93,27.39c-1.51.78-3.15,1.47-4.89,2.07-1.75.6-3.54,1.13-5.39,1.57-1.85.45-3.69.79-5.54,1.02-1.85.23-3.6.35-5.27.35-5.52,0-10.54-1.03-15.06-3.09-4.53-2.06-8.41-4.87-11.65-8.42-3.24-3.55-5.76-7.68-7.55-12.38-1.79-4.7-2.68-9.71-2.68-15.03,0-6.37.9-12.31,2.71-17.83,1.81-5.52,4.47-10.3,7.98-14.36,3.51-4.06,7.87-7.24,13.05-9.56,5.19-2.31,11.14-3.47,17.86-3.47,2.68,0,5.4.21,8.16.64,2.76.43,5.4,1.22,7.92,2.39Z"/>
  <path class="cls-1" d="M467.67,354.73l-29.13,1.4-.23-24.59h-13.4l-.82,25.52h-26.1l2.21-81.92,27.74,1.28-1.75,41.84h12.94l.12-43.82,26.57.7,1.86,79.59Z"/>
  <circle class="cls-1" cx="320.27" cy="186.15" r="15.84"/>
  <path class="cls-1" d="M351.7,176.21c4.38-2.71,13.01-7.14,24.41-7.12,11.25.02,19.78,4.36,24.16,7.04v-16.18c-4.71-2.7-13.73-6.92-25.44-6.55-10.5.33-18.58,4.19-23.13,6.88v15.94Z"/>
  <path class="cls-1" d="M350.27,167.06l-16.62-7.31c-.74-.32-.73-1.37.01-1.69l40.27-16.93c.96-.4,2.03-.41,2.99-.02l41.36,16.84c.75.3.77,1.35.03,1.69l-16.49,7.5.09-3.79c-4.07-2.3-13.35-6.82-25.96-6.77-12.49.05-21.66,4.57-25.73,6.89.01,1.19.03,2.38.04,3.57Z"/>
  <polygon class="cls-1" points="410.66 158.98 410.88 171.5 413.56 187.31 409.86 188.54 408.28 187.61 406.69 187.41 408.81 171.4 408.99 159.37 410.66 158.98"/>
</svg>